<svg version="1.1" xmlns="http://www.w3.org/2000/svg" xmlns:xlink="http://www.w3.org/1999/xlink" width="1206" height="690" viewBox="0 0 1206 690"><defs/><g transform="matrix(1,0,0,1,0,0)"><g><g><g><path fill="none" stroke="#d3d3d3" paint-order="fill stroke markers" d=" M 0 0 L 1200 0" stroke-miterlimit="10" stroke-opacity="0.8" stroke-dasharray="5"/></g><g><path fill="none" stroke="#d3d3d3" paint-order="fill stroke markers" d=" M 0 0 L 0 800" stroke-miterlimit="10" stroke-opacity="0.8" stroke-dasharray="5"/></g></g><g id="_E6E85185-A882-464F-AAA5-F3AD586A1A74" bpmn2nodeid="_E6E85185-A882-464F-AAA5-F3AD586A1A74" transform="matrix(1,0,0,1,1100,194.5)"><g><path fill="none" stroke="none"/></g><g transform="matrix(0.125,0,0,0.125,0,0)"><g transform="matrix(1,0,0,1,0,0)"><path fill="#fce7e7" stroke="none" id="_E6E85185-A882-464F-AAA5-F3AD586A1A74?shapeType=BACKGROUND" paint-order="stroke fill markers" d=" M 0 0 M 444 224 C 444 263.9 434.2 300.8 414.4 334.5 C 394.7 368.2 368 394.9 334.4 414.5 C 300.79999999999995 434.1 263.9 444 224 444 C 184.10000000000002 444 147.2 434.2 113.5 414.4 C 79.8 394.7 53.1 368 33.5 334.4 C 13.899999999999999 300.79999999999995 4 263.9 4 224 C 4 184.10000000000002 13.8 147.2 33.6 113.5 C 53.400000000000006 79.80000000000001 80.1 53.1 113.6 33.5 C 147.1 13.899999999999999 184.1 4 224 4 C 263.9 4 300.8 13.8 334.5 33.6 C 368.2 53.400000000000006 394.9 80.1 414.5 113.6 C 434.1 147.1 444 184.1 444 224 Z"/></g><g><g transform="matrix(1,0,0,1,0,0)"><g transform="matrix(1,0,0,1,0,0)"><path fill="#a30000" stroke="none" id="_E6E85185-A882-464F-AAA5-F3AD586A1A74?shapeType=BORDER&amp;renderType=FILL" paint-order="stroke fill markers" d=" M 0 0 M 224 0 C 100.3 0 0 100.3 0 224 C 0 347.7 100.3 448 224 448 C 347.7 448 448 347.7 448 224 C 448 100.30000000000001 347.7 0 224 0 Z M 0 0 M 224 400 C 126.8 400 48 321.2 48 224 C 48 126.80000000000001 126.8 48 224 48 C 321.2 48 400 126.8 400 224 C 400 321.2 321.2 400 224 400 Z"/></g></g></g></g><g transform="matrix(1,0,0,1,-53.734375,61)"><text fill="#000000" stroke="none" font-family="Open Sans" font-size="12pt" font-style="normal" font-weight="normal" text-decoration="normal" x="81.734375" y="12" text-anchor="middle" dominant-baseline="alphabetic">Submitted Completed</text></g></g><g id="_A49F99FB-5CE3-4FBB-8C2D-EE8D7BE7C69F" bpmn2nodeid="_A49F99FB-5CE3-4FBB-8C2D-EE8D7BE7C69F" transform="matrix(1,0,0,1,633,44)"><g><path fill="none" stroke="none"/></g><g transform="matrix(1,0,0,1,0,0)"><path fill="#ffffff" stroke="none" id="_A49F99FB-5CE3-4FBB-8C2D-EE8D7BE7C69F?shapeType=BACKGROUND" paint-order="stroke fill markers" d=" M 2 0 L 151 0 L 151 0 A 2 2 0 0 1 153 2 L 153 99 L 153 99 A 2 2 0 0 1 151 101 L 2 101 L 2 101 A 2 2 0 0 1 0 99 L 0 2 L 0 2.0000000000000004 A 2 2 0 0 1 1.9999999999999996 0 Z"/></g><g transform="matrix(1,0,0,1,0,0)"><path fill="none" stroke="#393f44" id="_A49F99FB-5CE3-4FBB-8C2D-EE8D7BE7C69F?shapeType=BORDER&amp;renderType=STROKE" paint-order="fill stroke markers" d=" M 2 0 L 151 0 L 151 0 A 2 2 0 0 1 153 2 L 153 99 L 153 99 A 2 2 0 0 1 151 101 L 2 101 L 2 101 A 2 2 0 0 1 0 99 L 0 2 L 0 2.0000000000000004 A 2 2 0 0 1 1.9999999999999996 0 Z" stroke-miterlimit="10" stroke-width="1.5" stroke-dasharray=""/></g><g transform="matrix(1,0,0,1,1,10)"><g transform="matrix(1,0,0,1,0,0)"><g transform="matrix(1,0,0,1,63,66)"><path fill="none" stroke="#393f44" id="_A49F99FB-5CE3-4FBB-8C2D-EE8D7BE7C69Fundefined" paint-order="fill stroke markers" d=" M 0 0 L 25 0 L 25 25 L 0 25 L 0 0 Z Z" stroke-miterlimit="10" stroke-width="1.5" stroke-dasharray=""/></g><g transform="matrix(0.04,0,0,0.04,68.64,69.6)"><path fill="#000000" stroke="#000000" id="_A49F99FB-5CE3-4FBB-8C2D-EE8D7BE7C69Fundefined" paint-order="fill stroke markers" d=" M 0 0 M 352 184 L 352 232 C 352 238.7 349.7 244.3 345 249 C 340.3 253.7 334.7 256 328 256 L 224 256 L 224 360 C 224 366.7 221.7 372.3 217 377 C 212.3 381.7 206.7 384 200 384 L 152 384 C 145.3 384 139.7 381.7 135 377 C 130.3 372.3 128 366.7 128 360 L 128 256 L 24 256 C 17.3 256 11.7 253.7 7 249 C 2.3000000000000007 244.3 0 238.7 0 232 L 0 184 C 0 177.3 2.3 171.7 7 167 C 11.7 162.3 17.3 160 24 160 L 128 160 L 128 56 C 128 49.3 130.3 43.7 135 39 C 139.7 34.3 145.3 32 152 32 L 200 32 C 206.7 32 212.3 34.3 217 39 C 221.7 43.7 224 49.3 224 56 L 224 160 L 328 160 C 334.7 160 340.3 162.3 345 167 C 349.7 171.7 352 177.3 352 184 Z" stroke-miterlimit="10" stroke-dasharray=""/></g></g></g><g transform="matrix(1,0,0,1,12.82,10)"><g transform="matrix(1,0,0,1,0,0)"><g transform="matrix(1,0,0,1,63,66)"><path fill="none" stroke="none"/></g><g transform="matrix(0.04,0,0,0.04,68.64,69.6)"><path fill="none" stroke="none"/></g><g transform="matrix(0.04,0,0,0.04,40.32,71.04)"><path fill="none" stroke="none"/></g><g transform="matrix(0.04,0,0,0.04,39.36,72)"><path fill="none" stroke="none"/></g></g></g><g transform="matrix(1,0,0,1,17.44140625,35.5)"><text fill="#000000" stroke="none" font-family="Open Sans" font-size="12pt" font-style="normal" font-weight="normal" text-decoration="normal" x="59.05859375" y="12" text-anchor="middle" dominant-baseline="alphabetic">    Requested     </text><text fill="#000000" stroke="none" font-family="Open Sans" font-size="12pt" font-style="normal" font-weight="normal" text-decoration="normal" x="59.05859375" y="27" text-anchor="middle" dominant-baseline="alphabetic">Structure Check</text></g></g><g id="_D06C07D7-A44D-465E-9DA5-408DF323D819" bpmn2nodeid="_D06C07D7-A44D-465E-9DA5-408DF323D819" transform="matrix(1,0,0,1,444,195)"><g><path fill="none" stroke="none"/></g><g transform="matrix(0.125,0,0,0.125,0,0)"><g transform="matrix(1,0,0,1,0,0)"><path fill="#fef4ea" stroke="none" id="_D06C07D7-A44D-465E-9DA5-408DF323D819?shapeType=BACKGROUND" paint-order="stroke fill markers" d=" M 0 0 M 224.4 4.3 C 216.4 4.3 208.4 7.3 202.3 13.399999999999999 L 13.5 202.2 C 1.3000000000000007 214.39999999999998 1.3000000000000007 234.2 13.5 246.39999999999998 L 202.2 435.09999999999997 C 208.29999999999998 441.2 216.39999999999998 444.2 224.29999999999998 444.2 C 232.2 444.2 240.29999999999998 441.2 246.39999999999998 435.09999999999997 L 435.09999999999997 246.39999999999998 C 447.29999999999995 234.2 447.29999999999995 214.39999999999998 435.09999999999997 202.2 L 246.5 13.4 C 240.4 7.3 232.4 4.3 224.4 4.3 L 224.4 4.3 Z"/></g><g><g transform="matrix(1,0,0,1,0,0)"><g transform="matrix(1,0,0,1,0,0)"><path fill="#ec7a08" stroke="none" id="_D06C07D7-A44D-465E-9DA5-408DF323D819?shapeType=BORDER&amp;renderType=FILL" paint-order="stroke fill markers" d=" M 0 0 M 20.8 212.7 L 213.3 20.2 C 219.60000000000002 13.899999999999999 229.70000000000002 13.899999999999999 235.9 20.2 L 428.4 212.7 C 434.7 219 434.7 229.1 428.4 235.29999999999998 L 235.9 427.8 C 229.6 434.1 219.5 434.1 213.3 427.8 L 20.8 235.3 C 14.5 229.1 14.5 218.9 20.8 212.7 L 20.8 212.7 Z M 0 0 M 0 224 C 0 232.1 3.1 240.3 9.3 246.5 L 201.5 438.7 C 213.9 451.09999999999997 234.1 451.09999999999997 246.5 438.7 L 438.7 246.5 C 444.9 240.3 448 232.1 448 224 C 448 215.9 444.9 207.7 438.7 201.5 L 246.5 9.3 C 234.1 -3.0999999999999996 213.9 -3.0999999999999996 201.5 9.3 L 9.3 201.5 C 3.1 207.7 0 215.9 0 224 L 0 224 Z"/></g></g></g><g><g transform="matrix(1,0,0,1,0,0)"><g transform="matrix(1,0,0,1,0,0)"><path fill="#ec7a08" stroke="none" id="_D06C07D7-A44D-465E-9DA5-408DF323D819undefined" paint-order="stroke fill markers" d=" M 0 0 M 312 212 L 312 236 C 312 239.4 310.9 242.1 308.5 244.5 C 306.1 246.9 303.4 248 300 248 L 248 248 L 248 300 C 248 303.4 246.9 306.1 244.5 308.5 C 242.1 310.9 239.4 312 236 312 L 212 312 C 208.6 312 205.9 310.9 203.5 308.5 C 201.1 306.1 200 303.4 200 300 L 200 248 L 148 248 C 144.6 248 141.9 246.9 139.5 244.5 C 137.1 242.1 136 239.4 136 236 L 136 212 C 136 208.6 137.1 205.9 139.5 203.5 C 141.9 201.1 144.6 200 148 200 L 200 200 L 200 148 C 200 144.6 201.1 141.9 203.5 139.5 C 205.9 137.1 208.6 136 212 136 L 236 136 C 239.4 136 242.1 137.1 244.5 139.5 C 246.9 141.9 248 144.6 248 148 L 248 200 L 300 200 C 303.4 200 306.1 201.1 308.5 203.5 C 310.9 205.9 312 208.6 312 212 Z"/></g></g></g></g><g transform="matrix(1,0,0,1,11.8359375,61)"><text fill="#000000" stroke="none" font-family="Open Sans" font-size="12pt" font-style="normal" font-weight="normal" text-decoration="normal" x="16.1640625" y="12" text-anchor="middle" dominant-baseline="alphabetic">Split</text></g></g><g id="_61EC5963-D322-4150-A6A6-D520D32A1E82" bpmn2nodeid="_61EC5963-D322-4150-A6A6-D520D32A1E82" transform="matrix(1,0,0,1,308,195)"><g><path fill="none" stroke="none"/></g><g transform="matrix(0.125,0,0,0.125,0,0)"><g transform="matrix(1,0,0,1,0,0)"><path fill="#e8fae6" stroke="none" id="_61EC5963-D322-4150-A6A6-D520D32A1E82?shapeType=BACKGROUND" paint-order="stroke fill markers" d=" M 0 0 M 444 224 C 444 263.9 434.2 300.8 414.4 334.5 C 394.7 368.2 368 394.9 334.4 414.5 C 300.79999999999995 434.1 263.9 444 224 444 C 184.10000000000002 444 147.2 434.2 113.5 414.4 C 79.8 394.7 53.1 368 33.5 334.4 C 13.899999999999999 300.79999999999995 4 263.9 4 224 C 4 184.10000000000002 13.8 147.2 33.6 113.5 C 53.400000000000006 79.80000000000001 80.1 53.1 113.6 33.5 C 147.1 13.899999999999999 184.1 4 224 4 C 263.9 4 300.8 13.8 334.5 33.6 C 368.2 53.400000000000006 394.9 80.1 414.5 113.6 C 434.1 147.1 444 184.1 444 224 Z"/></g><g><g transform="matrix(1,0,0,1,0,0)"><g transform="matrix(1,0,0,1,0,0)"><path fill="#4aa241" stroke="none" id="_61EC5963-D322-4150-A6A6-D520D32A1E82?shapeType=BORDER&amp;renderType=FILL" paint-order="stroke fill markers" d=" M 0 0 M 224 0 C 100.3 0 0 100.3 0 224 C 0 347.7 100.3 448 224 448 C 347.7 448 448 347.7 448 224 C 448 100.30000000000001 347.7 0 224 0 Z M 0 0 M 224 432 C 109.1 432 16 338.9 16 224 C 16 109.10000000000002 109.1 16 224 16 C 338.9 16 432 109.1 432 224 C 432 338.9 338.9 432 224 432 Z"/></g></g></g></g><g transform="matrix(1,0,0,1,-39.9296875,61)"><text fill="#000000" stroke="none" font-family="Open Sans" font-size="12pt" font-style="normal" font-weight="normal" text-decoration="normal" x="67.9296875" y="12" text-anchor="middle" dominant-baseline="alphabetic">Submitted Started</text></g></g><g id="_C77656AB-2DE2-44C1-94F5-07679F0A7193" bpmn2nodeid="_C77656AB-2DE2-44C1-94F5-07679F0A7193" transform="matrix(1,0,0,1,946,194.5)"><g><path fill="none" stroke="none"/></g><g transform="matrix(0.125,0,0,0.125,0,0)"><g transform="matrix(1,0,0,1,0,0)"><path fill="#fef4ea" stroke="none" id="_C77656AB-2DE2-44C1-94F5-07679F0A7193?shapeType=BACKGROUND" paint-order="stroke fill markers" d=" M 0 0 M 224.4 4.3 C 216.4 4.3 208.4 7.3 202.3 13.399999999999999 L 13.5 202.2 C 1.3000000000000007 214.39999999999998 1.3000000000000007 234.2 13.5 246.39999999999998 L 202.2 435.09999999999997 C 208.29999999999998 441.2 216.39999999999998 444.2 224.29999999999998 444.2 C 232.2 444.2 240.29999999999998 441.2 246.39999999999998 435.09999999999997 L 435.09999999999997 246.39999999999998 C 447.29999999999995 234.2 447.29999999999995 214.39999999999998 435.09999999999997 202.2 L 246.5 13.4 C 240.4 7.3 232.4 4.3 224.4 4.3 L 224.4 4.3 Z"/></g><g><g transform="matrix(1,0,0,1,0,0)"><g transform="matrix(1,0,0,1,0,0)"><path fill="#ec7a08" stroke="none" id="_C77656AB-2DE2-44C1-94F5-07679F0A7193?shapeType=BORDER&amp;renderType=FILL" paint-order="stroke fill markers" d=" M 0 0 M 20.8 212.7 L 213.3 20.2 C 219.60000000000002 13.899999999999999 229.70000000000002 13.899999999999999 235.9 20.2 L 428.4 212.7 C 434.7 219 434.7 229.1 428.4 235.29999999999998 L 235.9 427.8 C 229.6 434.1 219.5 434.1 213.3 427.8 L 20.8 235.3 C 14.5 229.1 14.5 218.9 20.8 212.7 L 20.8 212.7 Z M 0 0 M 0 224 C 0 232.1 3.1 240.3 9.3 246.5 L 201.5 438.7 C 213.9 451.09999999999997 234.1 451.09999999999997 246.5 438.7 L 438.7 246.5 C 444.9 240.3 448 232.1 448 224 C 448 215.9 444.9 207.7 438.7 201.5 L 246.5 9.3 C 234.1 -3.0999999999999996 213.9 -3.0999999999999996 201.5 9.3 L 9.3 201.5 C 3.1 207.7 0 215.9 0 224 L 0 224 Z"/></g></g></g><g><g transform="matrix(1,0,0,1,0,0)"><g transform="matrix(1,0,0,1,0,0)"><path fill="#ec7a08" stroke="none" id="_C77656AB-2DE2-44C1-94F5-07679F0A7193undefined" paint-order="stroke fill markers" d=" M 0 0 M 312 212 L 312 236 C 312 239.4 310.9 242.1 308.5 244.5 C 306.1 246.9 303.4 248 300 248 L 248 248 L 248 300 C 248 303.4 246.9 306.1 244.5 308.5 C 242.1 310.9 239.4 312 236 312 L 212 312 C 208.6 312 205.9 310.9 203.5 308.5 C 201.1 306.1 200 303.4 200 300 L 200 248 L 148 248 C 144.6 248 141.9 246.9 139.5 244.5 C 137.1 242.1 136 239.4 136 236 L 136 212 C 136 208.6 137.1 205.9 139.5 203.5 C 141.9 201.1 144.6 200 148 200 L 200 200 L 200 148 C 200 144.6 201.1 141.9 203.5 139.5 C 205.9 137.1 208.6 136 212 136 L 236 136 C 239.4 136 242.1 137.1 244.5 139.5 C 246.9 141.9 248 144.6 248 148 L 248 200 L 300 200 C 303.4 200 306.1 201.1 308.5 203.5 C 310.9 205.9 312 208.6 312 212 Z"/></g></g></g></g><g transform="matrix(1,0,0,1,14.09765625,61)"><text fill="#000000" stroke="none" font-family="Open Sans" font-size="12pt" font-style="normal" font-weight="normal" text-decoration="normal" x="13.90234375" y="12" text-anchor="middle" dominant-baseline="alphabetic">Join</text></g></g><g id="_45DC14FF-381B-4177-AAE8-D970CAA81199" bpmn2nodeid="_45DC14FF-381B-4177-AAE8-D970CAA81199" transform="matrix(1,0,0,1,468.5,438.435302734375)"><g><path fill="none" stroke="none"/></g><g transform="matrix(1,0,0,1,0,0)"><path fill="#fafafa" stroke="none" id="_45DC14FF-381B-4177-AAE8-D970CAA81199?shapeType=BACKGROUND" paint-order="stroke fill markers" d=" M 2 0 L 507 0 L 507 0 A 2 2 0 0 1 509 2 L 509 200 L 509 200 A 2 2 0 0 1 507 202 L 2 202 L 2 202 A 2 2 0 0 1 0 200 L 0 2 L 0 2.0000000000000004 A 2 2 0 0 1 1.9999999999999996 0 Z"/></g><g transform="matrix(1,0,0,1,0,0)"><path fill="none" stroke="#393f44" id="_45DC14FF-381B-4177-AAE8-D970CAA81199?shapeType=BORDER&amp;renderType=STROKE" paint-order="fill stroke markers" d=" M 2 0 L 507 0 L 507 0 A 2 2 0 0 1 509 2 L 509 200 L 509 200 A 2 2 0 0 1 507 202 L 2 202 L 2 202 A 2 2 0 0 1 0 200 L 0 2 L 0 2.0000000000000004 A 2 2 0 0 1 1.9999999999999996 0 Z" stroke-miterlimit="10" stroke-width="2" stroke-dasharray="2,2"/></g><g transform="matrix(1,0,0,1,-41.71249999999998,-23.775000000000006)"><g transform="matrix(0.05,0,0,0.05,285,209)"><g transform="matrix(1,0,0,1,0,0)"><path fill="none" stroke="black" id="_45DC14FF-381B-4177-AAE8-D970CAA81199undefined" paint-order="fill stroke markers" d=" M 0 0 M 421.5 159.5 C 405.6 156.4 390.1 165.8 385.1 180.8 L 385.1 180.8 L 385.20000000000005 180.5 C 385.20000000000005 180.6 380.90000000000003 192.3 370.30000000000007 203.4 C 357.30000000000007 217 341.1000000000001 223.6 320.70000000000005 223.6 C 296.6 223.6 271.80000000000007 200.6 245.60000000000005 176.2 C 213.30000000000007 146.2 176.80000000000007 112.1 128.20000000000005 112.1 C 98.70000000000005 112.1 57.00000000000004 124.89999999999999 25.30000000000004 185.7 C 8.7 217.6 2.3 249.2 2 250.6 L 2 250.7 C 1.9 251.1 1.8 251.6 1.8 252 C 1.8 252.1 1.8 252.2 1.8 252.3 C 1.7 252.70000000000002 1.7 253.20000000000002 1.6 253.60000000000002 C 1.6 253.70000000000002 1.6 253.8 1.6 253.90000000000003 C 1.6 254.30000000000004 1.5 254.80000000000004 1.5 255.20000000000005 C 1.5 255.30000000000004 1.5 255.40000000000003 1.5 255.50000000000006 C 1.5 255.90000000000006 1.5 256.30000000000007 1.5 256.6000000000001 C 1.5 256.80000000000007 1.5 256.9000000000001 1.5 257.1000000000001 C 1.5 257.4000000000001 1.5 257.7000000000001 1.5 258.00000000000006 C 1.5 258.20000000000005 1.5 258.50000000000006 1.5 258.70000000000005 C 1.5 258.90000000000003 1.5 259.20000000000005 1.6 259.40000000000003 C 1.6 259.70000000000005 1.6 260.00000000000006 1.7000000000000002 260.3 C 1.7000000000000002 260.40000000000003 1.7000000000000002 260.6 1.8000000000000003 260.7 C 1.8000000000000003 261.09999999999997 1.9000000000000004 261.5 2.0000000000000004 261.9 L 2.0000000000000004 262 C 4.1000000000000005 274.7 13.9 285.5 27.3 288.1 C 29.400000000000002 288.5 31.5 288.70000000000005 33.6 288.70000000000005 C 47.2 288.70000000000005 59.5 280.00000000000006 63.900000000000006 267.00000000000006 C 64.5 265.6000000000001 68.80000000000001 255.60000000000005 77.60000000000001 245.80000000000007 C 90.9 231.10000000000008 107.5 224.00000000000006 128.4 224.00000000000006 C 151.8 224.00000000000006 176.3 246.80000000000007 202.2 270.90000000000003 C 234.7 301.20000000000005 271.6 335.5 320.9 335.5 C 345.5 335.5 367.79999999999995 327 387.4 310.2 C 401.4 298.2 413.79999999999995 281.9 424.09999999999997 261.9 C 440.59999999999997 229.99999999999997 446.79999999999995 198.29999999999998 446.99999999999994 196.89999999999998 C 450.3 179.6 438.9 162.8 421.5 159.5 Z" stroke-miterlimit="10" stroke-dasharray=""/></g></g></g><g transform="matrix(1,0,0,1,178.078125,0)"><text fill="#000000" stroke="none" font-family="Open Sans" font-size="12pt" font-style="normal" font-weight="normal" text-decoration="normal" x="76.421875" y="12" text-anchor="middle" dominant-baseline="alphabetic">Adhoc Tasks Process</text></g><g id="_CB37E80B-8FFE-4FB9-A3B5-D0A07D44C8AD" bpmn2nodeid="_CB37E80B-8FFE-4FB9-A3B5-D0A07D44C8AD" transform="matrix(1,0,0,1,420,78)"><g><path fill="none" stroke="none"/></g><g transform="matrix(0.125,0,0,0.125,0,0)"><g transform="matrix(1,0,0,1,0,0)"><path fill="#fce7e7" stroke="none" id="_CB37E80B-8FFE-4FB9-A3B5-D0A07D44C8AD?shapeType=BACKGROUND" paint-order="stroke fill markers" d=" M 0 0 M 444 224 C 444 263.9 434.2 300.8 414.4 334.5 C 394.7 368.2 368 394.9 334.4 414.5 C 300.79999999999995 434.1 263.9 444 224 444 C 184.10000000000002 444 147.2 434.2 113.5 414.4 C 79.8 394.7 53.1 368 33.5 334.4 C 13.899999999999999 300.79999999999995 4 263.9 4 224 C 4 184.10000000000002 13.8 147.2 33.6 113.5 C 53.400000000000006 79.80000000000001 80.1 53.1 113.6 33.5 C 147.1 13.899999999999999 184.1 4 224 4 C 263.9 4 300.8 13.8 334.5 33.6 C 368.2 53.400000000000006 394.9 80.1 414.5 113.6 C 434.1 147.1 444 184.1 444 224 Z"/></g><g><g transform="matrix(1,0,0,1,0,0)"><g transform="matrix(1,0,0,1,0,0)"><path fill="#a30000" stroke="none" id="_CB37E80B-8FFE-4FB9-A3B5-D0A07D44C8AD?shapeType=BORDER&amp;renderType=FILL" paint-order="stroke fill markers" d=" M 0 0 M 224 0 C 100.3 0 0 100.3 0 224 C 0 347.7 100.3 448 224 448 C 347.7 448 448 347.7 448 224 C 448 100.30000000000001 347.7 0 224 0 Z M 0 0 M 224 400 C 126.8 400 48 321.2 48 224 C 48 126.80000000000001 126.8 48 224 48 C 321.2 48 400 126.8 400 224 C 400 321.2 321.2 400 224 400 Z"/></g></g></g></g><g transform="matrix(1,0,0,1,28,61)"/></g><g id="_4658F8FD-32F4-4D52-8355-749537EAC77C" bpmn2nodeid="_4658F8FD-32F4-4D52-8355-749537EAC77C" transform="matrix(1,0,0,1,165,55.5)"><g><path fill="none" stroke="none"/></g><g transform="matrix(1,0,0,1,0,0)"><path fill="#ffffff" stroke="none" id="_4658F8FD-32F4-4D52-8355-749537EAC77C?shapeType=BACKGROUND" paint-order="stroke fill markers" d=" M 2 0 L 151 0 L 151 0 A 2 2 0 0 1 153 2 L 153 99 L 153 99 A 2 2 0 0 1 151 101 L 2 101 L 2 101 A 2 2 0 0 1 0 99 L 0 2 L 0 2.0000000000000004 A 2 2 0 0 1 1.9999999999999996 0 Z"/></g><g transform="matrix(1,0,0,1,0,0)"><path fill="none" stroke="rgb(0,136,206)" id="_4658F8FD-32F4-4D52-8355-749537EAC77C?shapeType=BORDER&amp;renderType=STROKE" paint-order="fill stroke markers" d=" M 2 0 L 151 0 L 151 0 A 2 2 0 0 1 153 2 L 153 99 L 153 99 A 2 2 0 0 1 151 101 L 2 101 L 2 101 A 2 2 0 0 1 0 99 L 0 2 L 0 2.0000000000000004 A 2 2 0 0 1 1.9999999999999996 0 Z" stroke-miterlimit="10" stroke-width="1.5" stroke-dasharray=""/></g><g><g transform="matrix(0.06,0,0,0.06,9.4,9.4)"><g transform="matrix(1,0,0,1,0,0)"><path fill="#393f44" stroke="none" id="_4658F8FD-32F4-4D52-8355-749537EAC77Cundefined" paint-order="stroke fill markers" d=" M 0 0 M 16 445.2101 C 16 440.86867 18.784312 431.12906000000004 22.001325 424.21728 C 35.767643 394.6402 77.282944 359.28049 129 333.08362 C 144.51625 325.22398 157.34689 319.96394 167.80739 317.17416 C 171.93153 316.07426 175.72913 314.41389999999996 176.5251 313.36265 C 178.89361 310.23449999999997 180.91404 302.90781 181.72673 294.5 L 182.5 286.5 L 178.50715 283.45457 C 166.30327 274.14645 154.2837 251.67767 148.03953 226.5 C 145.61086 216.70715 145.05603000000002 215.46246 142.98364 215.1579 C 141.70332000000002 214.96974 138.08302 212.24302 134.93852 209.09852 C 123.23314 197.39314000000002 116.89146000000001 177.37556 121.43982000000001 166.48978 C 123.00204000000001 162.75088 128.15457 159.00970999999998 131.75 159.00374 C 134.44781 158.99974 134.47062 158.60296 132.91375 138.78796 C 130.92658 113.4962 134.27903 92.26542699999999 143.13217 74.075676 C 152.23162 55.379835 167.56889 42.88208 189.04934 36.659507000000005 C 210.20334 30.531504000000005 237.79666 30.531504000000005 258.95065999999997 36.659507000000005 C 300.04166 48.562968000000005 318.95842 83.80634 314.95504999999997 141 C 314.31982999999997 150.075 313.62402 157.78816 313.4088 158.14035 C 313.19359 158.49254000000002 314.57532 159.07295000000002 316.47931 159.43014000000002 C 328.92867 161.76565000000002 330.98619 177.01772000000003 321.49638 196.62092 C 316.90319 206.10912000000002 309.35724 214.50797 304.81732 215.18517000000003 C 303.02259 215.45289000000002 302.2931 217.14618000000002 299.94277999999997 226.50000000000003 C 296.65948 239.56693 294.47402 245.30522000000002 287.94764 257.99534000000006 C 282.49071999999995 268.60596000000004 273.03466 281.10922000000005 268.10756999999995 284.2288300000001 L 264.87062 286.27832000000006 L 265.51815999999997 292.88916000000006 C 266.34490999999997 301.32961000000006 268.63948999999997 309.8706000000001 270.87735999999995 312.83742000000007 C 272.06735 314.4150200000001 275.00244999999995 315.78963000000005 280.0630699999999 317.13941000000005 C 291.06929999999994 320.0750300000001 303.61700999999994 325.27420000000006 320.99999999999994 334.10171 C 369.81470999999993 358.89104000000003 410.84810999999996 393.75797 425.03216 422.5 C 429.06985999999995 430.68183 432 440.23198 432 445.2101 L 432 448 L 224 448 L 16 448 L 16 445.2101 Z"/></g></g></g><g transform="matrix(1,0,0,1,3.539999999999992,12.680000000000007)"><g transform="matrix(0.04,0,0,0.04,63.36,69.12)"><g transform="matrix(1,0,0,1,0,0)"><path fill="none" stroke="none"/></g><g transform="matrix(1,0,0,1,0,0)"><path fill="none" stroke="none"/></g></g></g><g transform="matrix(1,0,0,1,35,43)"><text fill="#000000" stroke="none" font-family="Open Sans" font-size="12pt" font-style="normal" font-weight="normal" text-decoration="normal" x="45.66015625" y="12" text-anchor="middle" dominant-baseline="alphabetic">Adhoc Tasks</text></g></g><g id="_F4626093-BF43-4586-8FD2-C222ED359DE7" bpmn2nodeid="_F4626093-BF43-4586-8FD2-C222ED359DE7" transform="matrix(1,0,0,1,36,78)"><g><path fill="none" stroke="none"/></g><g transform="matrix(0.125,0,0,0.125,0,0)"><g transform="matrix(1,0,0,1,0,0)"><path fill="#e8fae6" stroke="none" id="_F4626093-BF43-4586-8FD2-C222ED359DE7?shapeType=BACKGROUND" paint-order="stroke fill markers" d=" M 0 0 M 444 224 C 444 263.9 434.2 300.8 414.4 334.5 C 394.7 368.2 368 394.9 334.4 414.5 C 300.79999999999995 434.1 263.9 444 224 444 C 184.10000000000002 444 147.2 434.2 113.5 414.4 C 79.8 394.7 53.1 368 33.5 334.4 C 13.899999999999999 300.79999999999995 4 263.9 4 224 C 4 184.10000000000002 13.8 147.2 33.6 113.5 C 53.400000000000006 79.80000000000001 80.1 53.1 113.6 33.5 C 147.1 13.899999999999999 184.1 4 224 4 C 263.9 4 300.8 13.8 334.5 33.6 C 368.2 53.400000000000006 394.9 80.1 414.5 113.6 C 434.1 147.1 444 184.1 444 224 Z"/></g><g><g transform="matrix(1,0,0,1,0,0)"><g transform="matrix(1,0,0,1,0,0)"><path fill="none" stroke="#4aa241" id="_F4626093-BF43-4586-8FD2-C222ED359DE7?shapeType=BORDER&amp;renderType=FILL" paint-order="fill stroke markers" d=" M 0 0 M 224 0 C 100.3 0 0 100.3 0 224 C 0 347.7 100.3 448 224 448 C 347.7 448 448 347.7 448 224 C 448 100.30000000000001 347.7 0 224 0 Z M 0 0 M 224 432 C 109.1 432 16 338.9 16 224 C 16 109.10000000000002 109.1 16 224 16 C 338.9 16 432 109.1 432 224 C 432 338.9 338.9 432 224 432 Z" stroke-miterlimit="10" stroke-width="5" stroke-dasharray="15,15"/></g></g></g><g><g transform="matrix(1,0,0,1,0,0)"><g transform="matrix(1,0,0,1,0,0)"><path fill="#4aa241" stroke="none" id="_F4626093-BF43-4586-8FD2-C222ED359DE7undefined" paint-order="stroke fill markers" d=" M 0 0 M 224.6 124.8 L 320.5 300.7 L 128.8 300.7 L 224.6 124.8 M 224.6 108.7 C 221.7 108.7 219 109.5 216.5 110.9 C 214 112.30000000000001 212.1 114.5 210.6 117 L 114.69999999999999 293 C 111.79999999999998 298.2 111.89999999999999 303.5 114.89999999999999 308.8 C 116.3 311.2 118.19999999999999 313.2 120.69999999999999 314.6 C 123.1 316 125.79999999999998 316.70000000000005 128.7 316.70000000000005 L 320.5 316.70000000000005 C 323.4 316.70000000000005 325.9 316.00000000000006 328.4 314.6 C 330.9 313.20000000000005 332.79999999999995 311.3 334.2 308.8 C 337.3 303.6 337.3 298.3 334.4 293 L 238.49999999999997 117 C 237.09999999999997 114.4 235.19999999999996 112.4 232.69999999999996 110.9 C 230.2 109.4 227.5 108.7 224.6 108.7 L 224.6 108.7 Z"/></g></g></g></g><g transform="matrix(1,0,0,1,28,61)"/></g></g><g id="_0A485855-7496-4772-9E4C-57F8088708BF" bpmn2nodeid="_0A485855-7496-4772-9E4C-57F8088708BF" transform="matrix(1,0,0,1,633,308)"><g><path fill="none" stroke="none"/></g><g transform="matrix(1,0,0,1,0,0)"><path fill="#ffffff" stroke="none" id="_0A485855-7496-4772-9E4C-57F8088708BF?shapeType=BACKGROUND" paint-order="stroke fill markers" d=" M 2 0 L 151 0 L 151 0 A 2 2 0 0 1 153 2 L 153 99 L 153 99 A 2 2 0 0 1 151 101 L 2 101 L 2 101 A 2 2 0 0 1 0 99 L 0 2 L 0 2.0000000000000004 A 2 2 0 0 1 1.9999999999999996 0 Z"/></g><g transform="matrix(1,0,0,1,0,0)"><path fill="none" stroke="#393f44" id="_0A485855-7496-4772-9E4C-57F8088708BF?shapeType=BORDER&amp;renderType=STROKE" paint-order="fill stroke markers" d=" M 2 0 L 151 0 L 151 0 A 2 2 0 0 1 153 2 L 153 99 L 153 99 A 2 2 0 0 1 151 101 L 2 101 L 2 101 A 2 2 0 0 1 0 99 L 0 2 L 0 2.0000000000000004 A 2 2 0 0 1 1.9999999999999996 0 Z" stroke-miterlimit="10" stroke-width="1.5" stroke-dasharray=""/></g><g transform="matrix(1,0,0,1,1,10)"><g transform="matrix(1,0,0,1,0,0)"><g transform="matrix(1,0,0,1,63,66)"><path fill="none" stroke="#393f44" id="_0A485855-7496-4772-9E4C-57F8088708BFundefined" paint-order="fill stroke markers" d=" M 0 0 L 25 0 L 25 25 L 0 25 L 0 0 Z Z" stroke-miterlimit="10" stroke-width="1.5" stroke-dasharray=""/></g><g transform="matrix(0.04,0,0,0.04,68.64,69.6)"><path fill="#000000" stroke="#000000" id="_0A485855-7496-4772-9E4C-57F8088708BFundefined" paint-order="fill stroke markers" d=" M 0 0 M 352 184 L 352 232 C 352 238.7 349.7 244.3 345 249 C 340.3 253.7 334.7 256 328 256 L 224 256 L 224 360 C 224 366.7 221.7 372.3 217 377 C 212.3 381.7 206.7 384 200 384 L 152 384 C 145.3 384 139.7 381.7 135 377 C 130.3 372.3 128 366.7 128 360 L 128 256 L 24 256 C 17.3 256 11.7 253.7 7 249 C 2.3000000000000007 244.3 0 238.7 0 232 L 0 184 C 0 177.3 2.3 171.7 7 167 C 11.7 162.3 17.3 160 24 160 L 128 160 L 128 56 C 128 49.3 130.3 43.7 135 39 C 139.7 34.3 145.3 32 152 32 L 200 32 C 206.7 32 212.3 34.3 217 39 C 221.7 43.7 224 49.3 224 56 L 224 160 L 328 160 C 334.7 160 340.3 162.3 345 167 C 349.7 171.7 352 177.3 352 184 Z" stroke-miterlimit="10" stroke-dasharray=""/></g></g></g><g transform="matrix(1,0,0,1,12.82,10)"><g transform="matrix(1,0,0,1,0,0)"><g transform="matrix(1,0,0,1,63,66)"><path fill="none" stroke="none"/></g><g transform="matrix(0.04,0,0,0.04,68.64,69.6)"><path fill="none" stroke="none"/></g><g transform="matrix(0.04,0,0,0.04,40.32,71.04)"><path fill="none" stroke="none"/></g><g transform="matrix(0.04,0,0,0.04,39.36,72)"><path fill="none" stroke="none"/></g></g></g><g transform="matrix(1,0,0,1,10.10546875,43)"><text fill="#000000" stroke="none" font-family="Open Sans" font-size="12pt" font-style="normal" font-weight="normal" text-decoration="normal" x="66.39453125" y="12" text-anchor="middle" dominant-baseline="alphabetic">Review Narratives</text></g></g><g id="_85F3DB29-88C9-464A-8E25-F4A9069FDC42" bpmn2nodeid="_85F3DB29-88C9-464A-8E25-F4A9069FDC42"><g><path fill="none" stroke="#000000" paint-order="fill stroke markers" d=" M 560.5 544.435302734375 L 618.5 544.435302734375" stroke-miterlimit="10" stroke-dasharray=""/></g><g transform="matrix(1,0,0,1,560.5,544.435302734375)"/><g transform="matrix(6.123233995736766e-17,1,-1,6.123233995736766e-17,633.5,539.435302734375)"><path fill="#000000" stroke="#000000" paint-order="fill stroke markers" d=" M 10 15 L 0 15 L 5 0 Z" stroke-miterlimit="10" stroke-dasharray=""/></g><g transform="matrix(1,0,0,1,560.5,534.435302734375)"/></g><g id="_2C729372-077E-4D6C-8C4B-792B5F1C6D54" bpmn2nodeid="_2C729372-077E-4D6C-8C4B-792B5F1C6D54"><g><path fill="none" stroke="#000000" paint-order="fill stroke markers" d=" M 786.5 544.435302734375 L 873.5 544.435302734375" stroke-miterlimit="10" stroke-dasharray=""/></g><g transform="matrix(1,0,0,1,786.5,544.435302734375)"/><g transform="matrix(6.123233995736766e-17,1,-1,6.123233995736766e-17,888.5,539.435302734375)"><path fill="#000000" stroke="#000000" paint-order="fill stroke markers" d=" M 10 15 L 0 15 L 5 0 Z" stroke-miterlimit="10" stroke-dasharray=""/></g><g transform="matrix(1,0,0,1,786.5,534.435302734375)"/></g><g id="_692BA6ED-3C9E-42DA-A54E-A74B83F4CA13" bpmn2nodeid="_692BA6ED-3C9E-42DA-A54E-A74B83F4CA13"><g><path fill="none" stroke="#000000" paint-order="fill stroke markers" d=" M 364 223 L 429 223" stroke-miterlimit="10" stroke-dasharray=""/></g><g transform="matrix(1,0,0,1,364,223)"/><g transform="matrix(6.123233995736766e-17,1,-1,6.123233995736766e-17,444,218)"><path fill="#000000" stroke="#000000" paint-order="fill stroke markers" d=" M 10 15 L 0 15 L 5 0 Z" stroke-miterlimit="10" stroke-dasharray=""/></g><g transform="matrix(1,0,0,1,364,213)"/></g><g id="_BF0611E6-F079-4F36-8A3E-79AFB531A143" bpmn2nodeid="_BF0611E6-F079-4F36-8A3E-79AFB531A143"><g><path fill="none" stroke="#000000" paint-order="fill stroke markers" d=" M 472 195 L 472 94.5 L 618 94.5" stroke-miterlimit="10" stroke-dasharray=""/></g><g transform="matrix(1,0,0,1,472,195)"/><g transform="matrix(6.123233995736766e-17,1,-1,6.123233995736766e-17,633,89.5)"><path fill="#000000" stroke="#000000" paint-order="fill stroke markers" d=" M 10 15 L 0 15 L 5 0 Z" stroke-miterlimit="10" stroke-dasharray=""/></g><g transform="matrix(1,0,0,1,482,144.75)"/></g><g id="_39A2736F-928A-4AE1-97A2-B025A756E417" bpmn2nodeid="_39A2736F-928A-4AE1-97A2-B025A756E417"><g><path fill="none" stroke="#000000" paint-order="fill stroke markers" d=" M 786 94.5 L 974 94.5 L 974 179.5" stroke-miterlimit="10" stroke-dasharray=""/></g><g transform="matrix(1,0,0,1,786,94.5)"/><g transform="matrix(-1,1.2246467991473532e-16,-1.2246467991473532e-16,-1,979,194.5)"><path fill="#000000" stroke="#000000" paint-order="fill stroke markers" d=" M 10 15 L 0 15 L 5 0 Z" stroke-miterlimit="10" stroke-dasharray=""/></g><g transform="matrix(1,0,0,1,786,84.5)"/></g><g id="_1D9FD95D-7FB4-4846-B93D-ADACAF1B858A" bpmn2nodeid="_1D9FD95D-7FB4-4846-B93D-ADACAF1B858A"><g><path fill="none" stroke="#000000" paint-order="fill stroke markers" d=" M 1002 222.5 L 1085 222.5" stroke-miterlimit="10" stroke-dasharray=""/></g><g transform="matrix(1,0,0,1,1002,222.5)"/><g transform="matrix(6.123233995736766e-17,1,-1,6.123233995736766e-17,1100,217.5)"><path fill="#000000" stroke="#000000" paint-order="fill stroke markers" d=" M 10 15 L 0 15 L 5 0 Z" stroke-miterlimit="10" stroke-dasharray=""/></g><g transform="matrix(1,0,0,1,1002,212.5)"/></g><g id="_B7ACA4F4-F3C0-4426-85F6-E37D7C9A58C4" bpmn2nodeid="_B7ACA4F4-F3C0-4426-85F6-E37D7C9A58C4"><g><path fill="none" stroke="#000000" paint-order="fill stroke markers" d=" M 472 251 L 472 358 L 618.0000723346491 358.45341637371007" stroke-miterlimit="10" stroke-dasharray=""/></g><g transform="matrix(1,0,0,1,472,251)"/><g transform="matrix(-0.003105575085995311,0.9999951776900653,-0.9999951776900653,-0.003105575085995311,633.0155278754299,353.5000241115497)"><path fill="#000000" stroke="#000000" paint-order="fill stroke markers" d=" M 10 15 L 0 15 L 5 0 Z" stroke-miterlimit="10" stroke-dasharray=""/></g><g transform="matrix(1,0,0,1,482,304.5)"/></g><g id="_DE4C5877-19AA-43B4-A790-1FE18A725627" bpmn2nodeid="_DE4C5877-19AA-43B4-A790-1FE18A725627"><g><path fill="none" stroke="#000000" paint-order="fill stroke markers" d=" M 786 358.5 L 974 358.5 L 949.0247938100573 237.19185564884978" stroke-miterlimit="10" stroke-dasharray=""/></g><g transform="matrix(1,0,0,1,786,358.5)"/><g transform="matrix(0.9794570432566516,-0.2016529206704871,0.2016529206704871,0.9794570432566516,941.1027147837167,223.50826460335244)"><path fill="#000000" stroke="#000000" paint-order="fill stroke markers" d=" M 10 15 L 0 15 L 5 0 Z" stroke-miterlimit="10" stroke-dasharray=""/></g><g transform="matrix(1,0,0,1,786,348.5)"/></g><g transform="matrix(1,0,0,1,1100,194.5)"/><g transform="matrix(1,0,0,1,633,44)"/><g transform="matrix(1,0,0,1,444,195)"/><g transform="matrix(1,0,0,1,308,195)"/><g transform="matrix(1,0,0,1,946,194.5)"/><g transform="matrix(1,0,0,1,468.5,438.435302734375)"/><g transform="matrix(1,0,0,1,888.5,516.435302734375)"/><g transform="matrix(1,0,0,1,504.5,516.435302734375)"/><g transform="matrix(1,0,0,1,633,308)"/><g transform="matrix(1,0,0,1,633.5,493.935302734375)"/></g></g></svg>